<svg height="480pt" viewBox="0 -20 480 480" width="480pt" xmlns="http://www.w3.org/2000/svg"><path d="m168 168.023438h144v16h-144zm0 0"/><path d="m152 168.023438h-24c-4.417969 0-8-3.582032-8-8v-64c0-4.417969 3.582031-8 8-8h224c4.417969 0 8 3.582031 8 8v64c0 4.417968-3.582031 8-8 8h-24v16h24c4.417969 0 8 3.582031 8 8v22.335937l39.070312-.152344c31.46875-7.660156 52.253907-37.617187 48.414063-69.777343-3.84375-32.15625-31.097656-56.375-63.484375-56.40625-3.109375-.003907-6.214844.210937-9.296875.640624-4.164063.605469-8.082031-2.140624-8.925781-6.265624-9.09375-42.8125-44.011719-75.351563-87.359375-81.402344-43.347657-6.046875-85.84375 15.691406-106.304688 54.378906-1.859375 3.5-6 5.113281-9.738281 3.792969-5.902344-2.089844-12.117188-3.152344-18.375-3.144531-30.910156.039062-55.960938 25.085937-56 56 .007812 4.765624.597656 9.511718 1.761719 14.132812.628906 2.554688-.03125 5.253906-1.777344 7.226562-1.742187 1.96875-4.339844 2.957032-6.953125 2.640626-.328125 0-.65625 0-1.03125 0-22.089844 0-40 17.90625-40 40 0 22.089843 17.910156 40 40 40l40-.183594v-23.816406c0-4.417969 3.582031-8 8-8h24zm0 0"/><path d="m344 104.023438h-208v48h208zm-64 32h-128c-4.417969 0-8-3.582032-8-8 0-4.417969 3.582031-8 8-8h128c4.417969 0 8 3.582031 8 8 0 4.417968-3.582031 8-8 8zm48 0h-16c-4.417969 0-8-3.582032-8-8 0-4.417969 3.582031-8 8-8h16c4.417969 0 8 3.582031 8 8 0 4.417968-3.582031 8-8 8zm0 0"/><path d="m472 408.023438h-208c-.464844.046874-.925781.140624-1.375.277343-2.382812-7.011719-7.890625-12.519531-14.90625-14.902343.140625-.449219.234375-.910157.28125-1.375v-72h96v-48h-16v-24h16v-48h-208v48h16v24h-16v48h96v72c.046875.464843.140625.925781.28125 1.375-7.015625 2.382812-12.523438 7.890624-14.90625 14.902343-.449219-.136719-.910156-.230469-1.375-.277343h-208c-4.417969 0-8 3.582031-8 8 0 4.417968 3.582031 8 8 8h208c.464844-.050782.925781-.144532 1.375-.28125 3.261719 9.722656 12.371094 16.273437 22.625 16.273437s19.363281-6.550781 22.625-16.273437c.449219.136718.910156.230468 1.375.28125h208c4.417969 0 8-3.582032 8-8 0-4.417969-3.582031-8-8-8zm-136-112c0 4.417968-3.582031 8-8 8h-16c-4.417969 0-8-3.582032-8-8 0-4.417969 3.582031-8 8-8h16c4.417969 0 8 3.582031 8 8zm-24-80h16c4.417969 0 8 3.582031 8 8 0 4.417968-3.582031 8-8 8h-16c-4.417969 0-8-3.582032-8-8 0-4.417969 3.582031-8 8-8zm-168 8c0-4.417969 3.582031-8 8-8h128c4.417969 0 8 3.582031 8 8 0 4.417968-3.582031 8-8 8h-128c-4.417969 0-8-3.582032-8-8zm168 24v24h-144v-24zm-160 56c-4.417969 0-8-3.582032-8-8 0-4.417969 3.582031-8 8-8h128c4.417969 0 8 3.582031 8 8 0 4.417968-3.582031 8-8 8zm0 0"/></svg>