<?xml version="1.0"?>
<svg xmlns="http://www.w3.org/2000/svg" xmlns:xlink="http://www.w3.org/1999/xlink" xmlns:svgjs="http://svgjs.com/svgjs" version="1.1" width="512" height="512" x="0" y="0" viewBox="0 0 512 512" style="enable-background:new 0 0 512 512" xml:space="preserve" class=""><g>
<g xmlns="http://www.w3.org/2000/svg">
	<g>
		<path d="M451.891,81.621L451.891,81.621L256,0L60.109,81.621v213.471l64.331,48.248c-2.695,10.756-4.056,21.828-4.056,33.042    C120.383,451.162,181.221,512,256,512s135.617-60.838,135.617-135.617c0-11.214-1.361-22.286-4.056-33.042l64.331-48.248V81.621z     M256,32.648l147.054,61.273L256,179.702L108.947,93.921L256,32.648z M90.246,280.024V117.901l150.685,87.9v187.237    L90.246,280.024z M256,481.863c-58.162,0-105.48-47.318-105.48-105.48c0-4.334,0.262-8.638,0.781-12.897L256,442.011    l104.699-78.524c0.518,4.258,0.781,8.563,0.781,12.897C361.48,434.545,314.162,481.863,256,481.863z M421.754,280.024    L271.069,393.038V205.802l150.685-87.9V280.024z" fill="#ffffff" data-original="#000000" style="" class=""/>
	</g>
</g>
<g xmlns="http://www.w3.org/2000/svg">
	<g>
		<path d="M120.383,170.372v94.583l90.411,67.808V223.112L120.383,170.372z M180.657,272.49l-30.137-22.603v-27.045l30.137,17.58    V272.49z" fill="#ffffff" data-original="#000000" style="" class=""/>
	</g>
</g>
<g xmlns="http://www.w3.org/2000/svg">
	<g>
		<path d="M301.206,223.112v109.652l90.411-67.808v-94.583L301.206,223.112z M361.48,249.887l-30.137,22.603v-32.068l30.137-17.58    V249.887z" fill="#ffffff" data-original="#000000" style="" class=""/>
	</g>
</g>
<g xmlns="http://www.w3.org/2000/svg">
</g>
<g xmlns="http://www.w3.org/2000/svg">
</g>
<g xmlns="http://www.w3.org/2000/svg">
</g>
<g xmlns="http://www.w3.org/2000/svg">
</g>
<g xmlns="http://www.w3.org/2000/svg">
</g>
<g xmlns="http://www.w3.org/2000/svg">
</g>
<g xmlns="http://www.w3.org/2000/svg">
</g>
<g xmlns="http://www.w3.org/2000/svg">
</g>
<g xmlns="http://www.w3.org/2000/svg">
</g>
<g xmlns="http://www.w3.org/2000/svg">
</g>
<g xmlns="http://www.w3.org/2000/svg">
</g>
<g xmlns="http://www.w3.org/2000/svg">
</g>
<g xmlns="http://www.w3.org/2000/svg">
</g>
<g xmlns="http://www.w3.org/2000/svg">
</g>
<g xmlns="http://www.w3.org/2000/svg">
</g>
</g></svg>
