<?xml version="1.0"?>
<svg xmlns="http://www.w3.org/2000/svg" xmlns:xlink="http://www.w3.org/1999/xlink" xmlns:svgjs="http://svgjs.com/svgjs" version="1.1" width="512" height="512" x="0" y="0" viewBox="0 0 512 512" style="enable-background:new 0 0 512 512" xml:space="preserve" class=""><g>
<circle xmlns="http://www.w3.org/2000/svg" style="" cx="256" cy="256" r="256" fill="#707070" data-original="#6e64c3" class=""/>
<path xmlns="http://www.w3.org/2000/svg" style="" d="M405.21,129.405l-70.646-28.547l-124.44,120.581l-75.183-57.035l-28.518,14.259l0.366,150.674  l180.73,180.73C414.032,494.532,512,386.712,512,256c0-6.947-0.287-13.827-0.83-20.635L405.21,129.405z" fill="#494850" data-original="#5046af" class=""/>
<path xmlns="http://www.w3.org/2000/svg" style="" d="M405.21,129.405l-70.646-28.547l-124.44,120.581l-75.183-57.035l-28.518,14.259l0.366,150.674  l28.518,14.259l75.183-57.035l124.44,120.581l70.646-28.547L405.21,129.405z M142.437,285.913v-63.825L177.718,254h0.366  L142.437,285.913z M327.477,307.139L256.549,254h-0.366l71.294-53.139L327.477,307.139L327.477,307.139z" fill="#ffffff" data-original="#ffffff" class=""/>
<g xmlns="http://www.w3.org/2000/svg">
</g>
<g xmlns="http://www.w3.org/2000/svg">
</g>
<g xmlns="http://www.w3.org/2000/svg">
</g>
<g xmlns="http://www.w3.org/2000/svg">
</g>
<g xmlns="http://www.w3.org/2000/svg">
</g>
<g xmlns="http://www.w3.org/2000/svg">
</g>
<g xmlns="http://www.w3.org/2000/svg">
</g>
<g xmlns="http://www.w3.org/2000/svg">
</g>
<g xmlns="http://www.w3.org/2000/svg">
</g>
<g xmlns="http://www.w3.org/2000/svg">
</g>
<g xmlns="http://www.w3.org/2000/svg">
</g>
<g xmlns="http://www.w3.org/2000/svg">
</g>
<g xmlns="http://www.w3.org/2000/svg">
</g>
<g xmlns="http://www.w3.org/2000/svg">
</g>
<g xmlns="http://www.w3.org/2000/svg">
</g>
</g></svg>
